<mxfile host="Electron" modified="2024-01-17T12:07:30.917Z" agent="Mozilla/5.0 (Windows NT 10.0; Win64; x64) AppleWebKit/537.36 (KHTML, like Gecko) draw.io/22.1.18 Chrome/120.0.6099.199 Electron/28.1.2 Safari/537.36" version="22.1.18" etag="O-vO2mBiPZ5yvn6uqgA5" type="device">
  <diagram id="ui1YIhwDr-3vYpVd3GYS" name="Page-1">
    <mxGraphModel dx="1713" dy="1186" grid="1" gridSize="10" guides="1" tooltips="1" connect="1" arrows="1" fold="1" page="0" pageScale="1" pageWidth="850" pageHeight="1100" background="none" math="0" shadow="0">
      <root>
        <mxCell id="0" />
        <mxCell id="1" parent="0" />
        <mxCell id="node2" value="&lt;p style=&quot;margin:0px;margin-top:4px;text-align:center;&quot;&gt;&lt;b&gt;billing&lt;/b&gt;&lt;/p&gt;&lt;hr size=&quot;1&quot;/&gt;&lt;p style=&quot;margin:0 0 0 4px;line-height:1.6;&quot;&gt; title: integer&lt;br/&gt; description: text&lt;br/&gt; address: varchar(255)&lt;br/&gt; type: billing_type&lt;br/&gt; user_id: uuid&lt;br/&gt; work_id: uuid&lt;br/&gt; created_at: timestamp(0)&lt;br/&gt; updated_at: timestamp(0)&lt;br/&gt; deleted_at: timestamp(0)&lt;/p&gt;&lt;hr size=&quot;1&quot;/&gt;&lt;p style=&quot;margin:0 0 0 4px;line-height:1.6;&quot;&gt; id: uuid&lt;/p&gt;" style="verticalAlign=top;align=left;overflow=fill;fontSize=14;fontFamily=Helvetica;html=1;rounded=0;shadow=0;comic=0;labelBackgroundColor=none;strokeWidth=1;" parent="1" vertex="1">
          <mxGeometry x="-160" y="180" width="180" height="253" as="geometry" />
        </mxCell>
        <mxCell id="node0" value="&lt;p style=&quot;margin:0px;margin-top:4px;text-align:center;&quot;&gt;&lt;b&gt;user&lt;/b&gt;&lt;/p&gt;&lt;hr size=&quot;1&quot;/&gt;&lt;p style=&quot;margin:0 0 0 4px;line-height:1.6;&quot;&gt; full_name: varchar(255)&lt;br/&gt; user_name: varchar(255)&lt;br/&gt; phone: varchar(15)&lt;br/&gt; status: user_status&lt;br/&gt; type: user_type&lt;br/&gt; created_at: timestamp(0)&lt;br/&gt; updated_at: timestamp(0)&lt;br/&gt; deleted_at: timestamp(0)&lt;/p&gt;&lt;hr size=&quot;1&quot;/&gt;&lt;p style=&quot;margin:0 0 0 4px;line-height:1.6;&quot;&gt; id: uuid&lt;/p&gt;" style="verticalAlign=top;align=left;overflow=fill;fontSize=14;fontFamily=Helvetica;html=1;rounded=0;shadow=0;comic=0;labelBackgroundColor=none;strokeWidth=1;" parent="1" vertex="1">
          <mxGeometry x="-130" y="-150" width="171" height="231" as="geometry" />
        </mxCell>
        <mxCell id="node1" value="&lt;p style=&quot;margin:0px;margin-top:4px;text-align:center;&quot;&gt;&lt;b&gt;work&lt;/b&gt;&lt;/p&gt;&lt;hr size=&quot;1&quot;/&gt;&lt;p style=&quot;margin:0 0 0 4px;line-height:1.6;&quot;&gt; title: varchar(255)&lt;br/&gt; description: text&lt;br/&gt; address: varchar(255)&lt;br/&gt; status: work_status&lt;br/&gt; user_id: uuid&lt;br/&gt; created_at: timestamp(0)&lt;br/&gt; updated_at: timestamp(0)&lt;br/&gt; deleted_at: timestamp(0)&lt;/p&gt;&lt;hr size=&quot;1&quot;/&gt;&lt;p style=&quot;margin:0 0 0 4px;line-height:1.6;&quot;&gt; id: uuid&lt;/p&gt;" style="verticalAlign=top;align=left;overflow=fill;fontSize=14;fontFamily=Helvetica;html=1;rounded=0;shadow=0;comic=0;labelBackgroundColor=none;strokeWidth=1;" parent="1" vertex="1">
          <mxGeometry x="210" y="150" width="170" height="231" as="geometry" />
        </mxCell>
        <mxCell id="w2ueNarGVIFWNFTOZKv--1" value="BILLING_TYPE" style="swimlane;fontStyle=0;childLayout=stackLayout;horizontal=1;startSize=30;horizontalStack=0;resizeParent=1;resizeParentMax=0;resizeLast=0;collapsible=1;marginBottom=0;whiteSpace=wrap;html=1;" vertex="1" parent="1">
          <mxGeometry x="310" y="-126" width="140" height="150" as="geometry" />
        </mxCell>
        <mxCell id="w2ueNarGVIFWNFTOZKv--2" value="&lt;div style=&quot;color: rgb(212, 212, 212); background-color: rgb(33, 33, 34); font-family: Consolas, &amp;quot;Courier New&amp;quot;, monospace; font-size: 14px; line-height: 19px;&quot;&gt;UZCARD&lt;/div&gt;" style="text;strokeColor=none;fillColor=none;align=left;verticalAlign=middle;spacingLeft=4;spacingRight=4;overflow=hidden;points=[[0,0.5],[1,0.5]];portConstraint=eastwest;rotatable=0;whiteSpace=wrap;html=1;" vertex="1" parent="w2ueNarGVIFWNFTOZKv--1">
          <mxGeometry y="30" width="140" height="30" as="geometry" />
        </mxCell>
        <mxCell id="w2ueNarGVIFWNFTOZKv--3" value="HUMO" style="text;strokeColor=none;fillColor=none;align=left;verticalAlign=middle;spacingLeft=4;spacingRight=4;overflow=hidden;points=[[0,0.5],[1,0.5]];portConstraint=eastwest;rotatable=0;whiteSpace=wrap;html=1;" vertex="1" parent="w2ueNarGVIFWNFTOZKv--1">
          <mxGeometry y="60" width="140" height="30" as="geometry" />
        </mxCell>
        <mxCell id="w2ueNarGVIFWNFTOZKv--4" value="MASTERCARD" style="text;strokeColor=none;fillColor=none;align=left;verticalAlign=middle;spacingLeft=4;spacingRight=4;overflow=hidden;points=[[0,0.5],[1,0.5]];portConstraint=eastwest;rotatable=0;whiteSpace=wrap;html=1;" vertex="1" parent="w2ueNarGVIFWNFTOZKv--1">
          <mxGeometry y="90" width="140" height="30" as="geometry" />
        </mxCell>
        <mxCell id="w2ueNarGVIFWNFTOZKv--5" value="VISA" style="text;strokeColor=none;fillColor=none;align=left;verticalAlign=middle;spacingLeft=4;spacingRight=4;overflow=hidden;points=[[0,0.5],[1,0.5]];portConstraint=eastwest;rotatable=0;whiteSpace=wrap;html=1;" vertex="1" parent="w2ueNarGVIFWNFTOZKv--1">
          <mxGeometry y="120" width="140" height="30" as="geometry" />
        </mxCell>
        <mxCell id="w2ueNarGVIFWNFTOZKv--6" value="WORK_STATUS" style="swimlane;fontStyle=0;childLayout=stackLayout;horizontal=1;startSize=30;horizontalStack=0;resizeParent=1;resizeParentMax=0;resizeLast=0;collapsible=1;marginBottom=0;whiteSpace=wrap;html=1;" vertex="1" parent="1">
          <mxGeometry x="480" y="-126" width="140" height="120" as="geometry" />
        </mxCell>
        <mxCell id="w2ueNarGVIFWNFTOZKv--7" value="&lt;div style=&quot;color: rgb(212, 212, 212); background-color: rgb(33, 33, 34); font-family: Consolas, &amp;quot;Courier New&amp;quot;, monospace; font-size: 14px; line-height: 19px;&quot;&gt;NEW&lt;/div&gt;" style="text;strokeColor=none;fillColor=none;align=left;verticalAlign=middle;spacingLeft=4;spacingRight=4;overflow=hidden;points=[[0,0.5],[1,0.5]];portConstraint=eastwest;rotatable=0;whiteSpace=wrap;html=1;" vertex="1" parent="w2ueNarGVIFWNFTOZKv--6">
          <mxGeometry y="30" width="140" height="30" as="geometry" />
        </mxCell>
        <mxCell id="w2ueNarGVIFWNFTOZKv--8" value="CONFIRMED" style="text;strokeColor=none;fillColor=none;align=left;verticalAlign=middle;spacingLeft=4;spacingRight=4;overflow=hidden;points=[[0,0.5],[1,0.5]];portConstraint=eastwest;rotatable=0;whiteSpace=wrap;html=1;" vertex="1" parent="w2ueNarGVIFWNFTOZKv--6">
          <mxGeometry y="60" width="140" height="30" as="geometry" />
        </mxCell>
        <mxCell id="w2ueNarGVIFWNFTOZKv--9" value="FINISHED" style="text;strokeColor=none;fillColor=none;align=left;verticalAlign=middle;spacingLeft=4;spacingRight=4;overflow=hidden;points=[[0,0.5],[1,0.5]];portConstraint=eastwest;rotatable=0;whiteSpace=wrap;html=1;" vertex="1" parent="w2ueNarGVIFWNFTOZKv--6">
          <mxGeometry y="90" width="140" height="30" as="geometry" />
        </mxCell>
        <mxCell id="w2ueNarGVIFWNFTOZKv--11" value="USER_TYPE" style="swimlane;fontStyle=0;childLayout=stackLayout;horizontal=1;startSize=30;horizontalStack=0;resizeParent=1;resizeParentMax=0;resizeLast=0;collapsible=1;marginBottom=0;whiteSpace=wrap;html=1;" vertex="1" parent="1">
          <mxGeometry x="630" y="-126" width="140" height="120" as="geometry" />
        </mxCell>
        <mxCell id="w2ueNarGVIFWNFTOZKv--12" value="&lt;div style=&quot;color: rgb(212, 212, 212); background-color: rgb(33, 33, 34); font-family: Consolas, &amp;quot;Courier New&amp;quot;, monospace; font-size: 14px; line-height: 19px;&quot;&gt;CLIENT&lt;/div&gt;" style="text;strokeColor=none;fillColor=none;align=left;verticalAlign=middle;spacingLeft=4;spacingRight=4;overflow=hidden;points=[[0,0.5],[1,0.5]];portConstraint=eastwest;rotatable=0;whiteSpace=wrap;html=1;" vertex="1" parent="w2ueNarGVIFWNFTOZKv--11">
          <mxGeometry y="30" width="140" height="30" as="geometry" />
        </mxCell>
        <mxCell id="w2ueNarGVIFWNFTOZKv--13" value="WORKER" style="text;strokeColor=none;fillColor=none;align=left;verticalAlign=middle;spacingLeft=4;spacingRight=4;overflow=hidden;points=[[0,0.5],[1,0.5]];portConstraint=eastwest;rotatable=0;whiteSpace=wrap;html=1;" vertex="1" parent="w2ueNarGVIFWNFTOZKv--11">
          <mxGeometry y="60" width="140" height="30" as="geometry" />
        </mxCell>
        <mxCell id="w2ueNarGVIFWNFTOZKv--14" value="GUEST" style="text;strokeColor=none;fillColor=none;align=left;verticalAlign=middle;spacingLeft=4;spacingRight=4;overflow=hidden;points=[[0,0.5],[1,0.5]];portConstraint=eastwest;rotatable=0;whiteSpace=wrap;html=1;" vertex="1" parent="w2ueNarGVIFWNFTOZKv--11">
          <mxGeometry y="90" width="140" height="30" as="geometry" />
        </mxCell>
        <mxCell id="w2ueNarGVIFWNFTOZKv--21" style="edgeStyle=orthogonalEdgeStyle;rounded=0;orthogonalLoop=1;jettySize=auto;html=1;entryX=-0.012;entryY=0.066;entryDx=0;entryDy=0;entryPerimeter=0;" edge="1" parent="1" source="node2" target="node1">
          <mxGeometry relative="1" as="geometry">
            <Array as="points">
              <mxPoint x="95" y="317" />
              <mxPoint x="95" y="185" />
            </Array>
          </mxGeometry>
        </mxCell>
        <mxCell id="w2ueNarGVIFWNFTOZKv--22" style="edgeStyle=orthogonalEdgeStyle;rounded=0;orthogonalLoop=1;jettySize=auto;html=1;entryX=1.006;entryY=0.075;entryDx=0;entryDy=0;entryPerimeter=0;" edge="1" parent="1" source="node1" target="node0">
          <mxGeometry relative="1" as="geometry" />
        </mxCell>
        <mxCell id="w2ueNarGVIFWNFTOZKv--23" style="edgeStyle=orthogonalEdgeStyle;rounded=0;orthogonalLoop=1;jettySize=auto;html=1;entryX=-0.006;entryY=0.075;entryDx=0;entryDy=0;entryPerimeter=0;exitX=0.011;exitY=0.535;exitDx=0;exitDy=0;exitPerimeter=0;" edge="1" parent="1" source="node2" target="node0">
          <mxGeometry relative="1" as="geometry">
            <Array as="points">
              <mxPoint x="-260" y="325" />
              <mxPoint x="-260" y="-133" />
            </Array>
          </mxGeometry>
        </mxCell>
      </root>
    </mxGraphModel>
  </diagram>
</mxfile>
